<svg width="26" height="26" viewBox="0 0 26 26" fill="none" xmlns="http://www.w3.org/2000/svg">
<path d="M25.361 7.89064L23.2797 5.80939C23.2755 5.80495 23.2704 5.80141 23.2648 5.799C23.2591 5.79658 23.2531 5.79534 23.2469 5.79534C23.2408 5.79534 23.2347 5.79658 23.2291 5.799C23.2234 5.80141 23.2183 5.80495 23.2141 5.80939C22.883 6.11639 22.446 6.28325 21.9945 6.27495C21.5431 6.26666 21.1124 6.08386 20.7929 5.7649C20.4733 5.44595 20.2897 5.01563 20.2806 4.56422C20.2714 4.11282 20.4374 3.67541 20.7438 3.34376C20.7482 3.33953 20.7518 3.33444 20.7542 3.3288C20.7566 3.32316 20.7579 3.31709 20.7579 3.31095C20.7579 3.30481 20.7566 3.29874 20.7542 3.2931C20.7518 3.28746 20.7482 3.28237 20.7438 3.27814L18.6625 1.19689C18.5714 1.10381 18.4627 1.0297 18.3428 0.978813C18.2228 0.927929 18.094 0.901284 17.9637 0.900413C17.8334 0.899541 17.7043 0.924461 17.5837 0.973735C17.4631 1.02301 17.3534 1.09566 17.261 1.18751C16.0891 2.35939 14.8328 3.61564 13.5344 4.91408C13.5411 4.98237 13.5329 5.0513 13.5102 5.11607C13.4875 5.18084 13.451 5.23988 13.4032 5.28908C13.3597 5.3329 13.3078 5.36753 13.2506 5.39088C13.1934 5.41423 13.1321 5.42584 13.0704 5.42501C13.0563 5.42501 13.0422 5.42033 13.0282 5.42033C10.661 7.78751 8.15786 10.2906 5.75317 12.6953H20.2422C20.2169 12.5962 20.2249 12.4914 20.2649 12.3972C20.3049 12.303 20.3748 12.2246 20.4637 12.174C20.5527 12.1234 20.6558 12.1034 20.7572 12.1172C20.8587 12.1309 20.9528 12.1776 21.025 12.25L21.3579 12.5828C21.3911 12.6162 21.4195 12.6541 21.4422 12.6953H21.9719L25.3704 9.29689C25.5549 9.10879 25.6575 8.85532 25.6557 8.59183C25.6539 8.32834 25.548 8.07626 25.361 7.89064ZM14.7297 6.61564C14.6862 6.65946 14.6343 6.69408 14.5771 6.71743C14.52 6.74079 14.4587 6.7524 14.3969 6.75158C14.3352 6.75198 14.2741 6.74017 14.2169 6.71684C14.1598 6.69351 14.1079 6.65912 14.0641 6.61564L13.736 6.28283C13.6483 6.19518 13.5991 6.07631 13.5991 5.95236C13.5991 5.82841 13.6483 5.70953 13.736 5.62189C13.8236 5.53424 13.9425 5.485 14.0665 5.485C14.1904 5.485 14.3093 5.53424 14.3969 5.62189L14.7297 5.9547C14.7732 5.99806 14.8077 6.04957 14.8312 6.10628C14.8547 6.16299 14.8668 6.22378 14.8668 6.28517C14.8668 6.34656 14.8547 6.40735 14.8312 6.46406C14.8077 6.52077 14.7732 6.57228 14.7297 6.61564ZM16.0563 7.9422C15.9674 8.02934 15.8479 8.07815 15.7235 8.07815C15.599 8.07815 15.4795 8.02934 15.3907 7.9422L15.0625 7.60939C15.0181 7.5666 14.9827 7.51528 14.9585 7.45849C14.9344 7.40171 14.9219 7.34063 14.9219 7.27892C14.9219 7.21721 14.9344 7.15613 14.9585 7.09935C14.9827 7.04256 15.0181 6.99124 15.0625 6.94845C15.1059 6.90499 15.1574 6.87051 15.2141 6.84699C15.2708 6.82346 15.3316 6.81135 15.393 6.81135C15.4544 6.81135 15.5152 6.82346 15.5719 6.84699C15.6286 6.87051 15.6801 6.90499 15.7235 6.94845L16.0563 7.27658C16.1441 7.36508 16.1934 7.48471 16.1934 7.60939C16.1934 7.73407 16.1441 7.8537 16.0563 7.9422ZM17.3829 9.26876C17.2932 9.35473 17.1742 9.40333 17.05 9.4047C16.9257 9.40419 16.8064 9.35546 16.7172 9.26876L16.3844 8.93595C16.341 8.89259 16.3065 8.84108 16.283 8.78437C16.2594 8.72766 16.2473 8.66687 16.2473 8.60548C16.2473 8.54409 16.2594 8.4833 16.283 8.42659C16.3065 8.36989 16.341 8.31838 16.3844 8.27501C16.4729 8.18719 16.5926 8.13791 16.7172 8.13791C16.8419 8.13791 16.9615 8.18719 17.05 8.27501L17.3829 8.60314C17.4707 8.69164 17.52 8.81127 17.52 8.93595C17.52 9.06064 17.4707 9.18027 17.3829 9.26876ZM18.7047 10.5953C18.6174 10.6819 18.4996 10.7307 18.3766 10.7313C18.2523 10.7308 18.1329 10.682 18.0438 10.5953L17.711 10.2625C17.6673 10.2188 17.6326 10.1669 17.609 10.1098C17.5853 10.0527 17.5731 9.99151 17.5731 9.9297C17.5731 9.86789 17.5853 9.80669 17.609 9.74958C17.6326 9.69248 17.6673 9.64059 17.711 9.59689C17.7547 9.55318 17.8066 9.51851 17.8637 9.49486C17.9208 9.47121 17.982 9.45903 18.0438 9.45903C18.1056 9.45903 18.1668 9.47121 18.2239 9.49486C18.281 9.51851 18.3329 9.55318 18.3766 9.59689L18.7047 9.9297C18.7926 10.0182 18.8419 10.1378 18.8419 10.2625C18.8419 10.3872 18.7926 10.5068 18.7047 10.5953ZM20.0313 11.9172C19.9885 11.9617 19.9372 11.997 19.8804 12.0212C19.8236 12.0454 19.7625 12.0578 19.7008 12.0578C19.6391 12.0578 19.578 12.0454 19.5213 12.0212C19.4645 11.997 19.4131 11.9617 19.3704 11.9172L19.0375 11.5891C18.9497 11.5006 18.9004 11.3809 18.9004 11.2563C18.9004 11.1316 18.9497 11.0119 19.0375 10.9235C19.0809 10.88 19.1324 10.8455 19.1891 10.822C19.2458 10.7984 19.3066 10.7863 19.368 10.7863C19.4294 10.7863 19.4902 10.7984 19.5469 10.822C19.6036 10.8455 19.6551 10.88 19.6985 10.9235L20.0313 11.2563C20.0748 11.2996 20.1092 11.3511 20.1328 11.4078C20.1563 11.4645 20.1684 11.5253 20.1684 11.5867C20.1684 11.6481 20.1563 11.7089 20.1328 11.7656C20.1092 11.8223 20.0748 11.8738 20.0313 11.9172Z" fill="#14519E"/>
<path d="M10.1763 20.8389C10.0422 20.8389 9.91099 20.8787 9.79943 20.9532C9.68787 21.0277 9.60091 21.1337 9.54957 21.2577C9.49822 21.3816 9.48478 21.518 9.51096 21.6496C9.53714 21.7812 9.60175 21.9021 9.69663 21.997C9.79151 22.0919 9.91239 22.1565 10.044 22.1826C10.1756 22.2088 10.312 22.1954 10.436 22.144C10.5599 22.0927 10.6659 22.0057 10.7404 21.8942C10.815 21.7826 10.8547 21.6514 10.8547 21.5173C10.8546 21.3374 10.783 21.1649 10.6558 21.0378C10.5287 20.9106 10.3562 20.839 10.1763 20.8389Z" fill="#14519E"/>
<path d="M24.1141 17.6219C24.1265 17.6219 24.1384 17.6169 24.1472 17.6081C24.156 17.5993 24.1609 17.5874 24.161 17.575V14.6313C24.1621 14.3677 24.0585 14.1146 23.8731 13.9273C23.6876 13.7401 23.4354 13.6342 23.1719 13.6328H18.013V13.791C18.013 13.9153 17.9636 14.0346 17.8757 14.1225C17.7878 14.2104 17.6686 14.2598 17.5442 14.2598C17.4199 14.2598 17.3007 14.2104 17.2128 14.1225C17.1249 14.0346 17.0755 13.9153 17.0755 13.791V13.6328H1.33284C1.20224 13.6331 1.073 13.6592 0.952516 13.7096C0.832037 13.76 0.722703 13.8337 0.630796 13.9265C0.538889 14.0192 0.466219 14.1293 0.416963 14.2502C0.367707 14.3712 0.342835 14.5007 0.343776 14.6313V17.575C0.343798 17.5874 0.348744 17.5993 0.35753 17.6081C0.366316 17.6169 0.378226 17.6219 0.390651 17.6219C0.841541 17.6392 1.2682 17.8305 1.58108 18.1556C1.89396 18.4807 2.06875 18.9144 2.06875 19.3656C2.06875 19.8168 1.89396 20.2505 1.58108 20.5757C1.2682 20.9008 0.841541 21.0921 0.390651 21.1094C0.37849 21.1102 0.367041 21.1154 0.358422 21.124C0.349804 21.1326 0.3446 21.1441 0.343776 21.1563V24.1047C0.343318 24.2349 0.368554 24.364 0.418039 24.4844C0.467524 24.6049 0.540286 24.7144 0.632159 24.8067C0.724032 24.899 0.83321 24.9723 0.953443 25.0224C1.07368 25.0724 1.2026 25.0983 1.33284 25.0984H17.0871C17.0819 25.0796 17.0781 25.0604 17.0755 25.041V24.5723C17.0755 24.4479 17.1249 24.3287 17.2128 24.2408C17.3007 24.1529 17.4199 24.1035 17.5442 24.1035C17.6686 24.1035 17.7878 24.1529 17.8757 24.2408C17.9636 24.3287 18.013 24.4479 18.013 24.5723V25.041C18.0104 25.0604 18.0065 25.0796 18.0014 25.0984H23.1719C23.4347 25.0973 23.6863 24.9921 23.8717 24.8059C24.0571 24.6196 24.1611 24.3675 24.161 24.1047V21.1563C24.1601 21.1441 24.1549 21.1326 24.1463 21.124C24.1377 21.1154 24.1262 21.1102 24.1141 21.1094C23.6623 21.0933 23.2345 20.9026 22.9206 20.5773C22.6067 20.252 22.4312 19.8177 22.4312 19.3656C22.4312 18.9136 22.6067 18.4792 22.9206 18.1539C23.2345 17.8287 23.6623 17.6379 24.1141 17.6219ZM6.44874 15.6001C6.76827 15.6001 7.08062 15.6949 7.34628 15.8725C7.61194 16.05 7.81899 16.3024 7.94125 16.5976C8.06351 16.8928 8.09548 17.2177 8.03314 17.531C7.97079 17.8444 7.81691 18.1323 7.59097 18.3582C7.36503 18.5842 7.07716 18.7381 6.76377 18.8004C6.45038 18.8627 6.12554 18.8308 5.83032 18.7085C5.53511 18.5863 5.28277 18.3792 5.10522 18.1135C4.92767 17.8479 4.83288 17.5355 4.83284 17.216C4.83334 16.7876 5.00375 16.3769 5.30668 16.0739C5.60961 15.771 6.02033 15.6006 6.44874 15.6001ZM5.30136 23.1331C5.21051 23.133 5.12163 23.1065 5.04554 23.0569C4.96945 23.0073 4.90944 22.9366 4.87279 22.8534C4.83615 22.7703 4.82446 22.6783 4.83915 22.5887C4.85383 22.499 4.89426 22.4155 4.95552 22.3485L10.9774 15.753C11.0188 15.7074 11.0689 15.6705 11.1246 15.6443C11.1803 15.6181 11.2407 15.6031 11.3022 15.6002C11.3638 15.5974 11.4253 15.6067 11.4832 15.6276C11.5411 15.6485 11.5943 15.6807 11.6398 15.7222C11.6853 15.7637 11.7222 15.8138 11.7483 15.8696C11.7744 15.9254 11.7893 15.9858 11.7921 16.0473C11.7948 16.1088 11.7854 16.1703 11.7644 16.2282C11.7434 16.2861 11.7111 16.3393 11.6695 16.3847L5.64765 22.9802C5.60383 23.0284 5.55037 23.067 5.49072 23.0933C5.43107 23.1197 5.36656 23.1332 5.30136 23.1331ZM10.1763 23.1331C9.85671 23.1331 9.54429 23.0383 9.27856 22.8607C9.01282 22.6832 8.80571 22.4308 8.6834 22.1355C8.5611 21.8403 8.5291 21.5154 8.59145 21.2019C8.6538 20.8884 8.8077 20.6005 9.03369 20.3745C9.25968 20.1485 9.54761 19.9946 9.86106 19.9323C10.1745 19.8699 10.4994 19.9019 10.7947 20.0242C11.09 20.1466 11.3423 20.3537 11.5199 20.6194C11.6974 20.8851 11.7922 21.1976 11.7922 21.5172C11.7917 21.9456 11.6213 22.3563 11.3184 22.6592C11.0154 22.9621 10.6047 23.1326 10.1763 23.1331ZM18.013 23.166C18.013 23.2903 17.9636 23.4096 17.8757 23.4975C17.7878 23.5854 17.6686 23.6348 17.5442 23.6348C17.4199 23.6348 17.3007 23.5854 17.2128 23.4975C17.1249 23.4096 17.0755 23.2903 17.0755 23.166V22.6973C17.0755 22.5729 17.1249 22.4537 17.2128 22.3658C17.3007 22.2779 17.4199 22.2285 17.5442 22.2285C17.6686 22.2285 17.7878 22.2779 17.8757 22.3658C17.9636 22.4537 18.013 22.5729 18.013 22.6973V23.166ZM18.013 21.291C18.013 21.4153 17.9636 21.5346 17.8757 21.6225C17.7878 21.7104 17.6686 21.7598 17.5442 21.7598C17.4199 21.7598 17.3007 21.7104 17.2128 21.6225C17.1249 21.5346 17.0755 21.4153 17.0755 21.291V20.8223C17.0755 20.6979 17.1249 20.5787 17.2128 20.4908C17.3007 20.4029 17.4199 20.3535 17.5442 20.3535C17.6686 20.3535 17.7878 20.4029 17.8757 20.4908C17.9636 20.5787 18.013 20.6979 18.013 20.8223V21.291ZM18.013 19.416C18.013 19.5403 17.9636 19.6596 17.8757 19.7475C17.7878 19.8354 17.6686 19.8848 17.5442 19.8848C17.4199 19.8848 17.3007 19.8354 17.2128 19.7475C17.1249 19.6596 17.0755 19.5403 17.0755 19.416V18.9473C17.0755 18.8229 17.1249 18.7037 17.2128 18.6158C17.3007 18.5279 17.4199 18.4785 17.5442 18.4785C17.6686 18.4785 17.7878 18.5279 17.8757 18.6158C17.9636 18.7037 18.013 18.8229 18.013 18.9473V19.416ZM18.013 17.541C18.013 17.6653 17.9636 17.7846 17.8757 17.8725C17.7878 17.9604 17.6686 18.0098 17.5442 18.0098C17.4199 18.0098 17.3007 17.9604 17.2128 17.8725C17.1249 17.7846 17.0755 17.6653 17.0755 17.541V17.0723C17.0755 16.9479 17.1249 16.8287 17.2128 16.7408C17.3007 16.6529 17.4199 16.6035 17.5442 16.6035C17.6686 16.6035 17.7878 16.6529 17.8757 16.7408C17.9636 16.8287 18.013 16.9479 18.013 17.0723V17.541ZM18.013 15.666C18.013 15.7903 17.9636 15.9096 17.8757 15.9975C17.7878 16.0854 17.6686 16.1348 17.5442 16.1348C17.4199 16.1348 17.3007 16.0854 17.2128 15.9975C17.1249 15.9096 17.0755 15.7903 17.0755 15.666V15.1973C17.0755 15.0729 17.1249 14.9537 17.2128 14.8658C17.3007 14.7779 17.4199 14.7285 17.5442 14.7285C17.6686 14.7285 17.7878 14.7779 17.8757 14.8658C17.9636 14.9537 18.013 15.0729 18.013 15.1973V15.666Z" fill="#14519E"/>
<path d="M6.44879 17.894C6.58292 17.8939 6.71403 17.8541 6.82553 17.7795C6.93703 17.705 7.02392 17.599 7.07521 17.4751C7.12649 17.3512 7.13988 17.2148 7.11367 17.0832C7.08745 16.9517 7.02282 16.8309 6.92795 16.7361C6.83307 16.6413 6.71221 16.5767 6.58064 16.5506C6.44908 16.5245 6.31273 16.5379 6.18882 16.5893C6.06492 16.6407 5.95903 16.7276 5.88455 16.8392C5.81007 16.9507 5.77034 17.0819 5.77039 17.216C5.77058 17.3958 5.84213 17.5682 5.96933 17.6953C6.09653 17.8224 6.26897 17.8939 6.44879 17.894Z" fill="#14519E"/>
</svg>
