<svg width="30" height="30" viewBox="0 0 30 30" fill="none" xmlns="http://www.w3.org/2000/svg">
<path d="M25.625 12.7375H22.0125C19.05 12.7375 16.6375 10.325 16.6375 7.3625V3.75C16.6375 3.0625 16.075 2.5 15.3875 2.5H10.0875C6.2375 2.5 3.125 5 3.125 9.4625V20.5375C3.125 25 6.2375 27.5 10.0875 27.5H19.9125C23.7625 27.5 26.875 25 26.875 20.5375V13.9875C26.875 13.3 26.3125 12.7375 25.625 12.7375ZM15.35 19.725L12.85 22.225C12.7625 22.3125 12.65 22.3875 12.5375 22.425C12.425 22.475 12.3125 22.5 12.1875 22.5C12.0625 22.5 11.95 22.475 11.8375 22.425C11.7375 22.3875 11.6375 22.3125 11.5625 22.2375C11.55 22.225 11.5375 22.225 11.5375 22.2125L9.0375 19.7125C8.675 19.35 8.675 18.75 9.0375 18.3875C9.4 18.025 10 18.025 10.3625 18.3875L11.25 19.3V14.0625C11.25 13.55 11.675 13.125 12.1875 13.125C12.7 13.125 13.125 13.55 13.125 14.0625V19.3L14.025 18.4C14.3875 18.0375 14.9875 18.0375 15.35 18.4C15.7125 18.7625 15.7125 19.3625 15.35 19.725Z" fill="url(#paint0_linear_998_85338)"/>
<path d="M21.7875 11.0126C22.975 11.0251 24.625 11.0251 26.0375 11.0251C26.75 11.0251 27.125 10.1876 26.625 9.68761C24.825 7.87511 21.6 4.61261 19.75 2.76261C19.2375 2.25011 18.35 2.60011 18.35 3.31261V7.67511C18.35 9.50011 19.9 11.0126 21.7875 11.0126Z" fill="url(#paint1_linear_998_85338)"/>
<defs>
<linearGradient id="paint0_linear_998_85338" x1="29.5589" y1="8.16549" x2="10.6137" y2="25.5636" gradientUnits="userSpaceOnUse">
<stop stop-color="#00A0E3"/>
<stop offset="0.4902" stop-color="#0A79C1"/>
<stop offset="1" stop-color="#14519E"/>
</linearGradient>
<linearGradient id="paint1_linear_998_85338" x1="27.8148" y1="4.44669" x2="21.3492" y2="10.6952" gradientUnits="userSpaceOnUse">
<stop stop-color="#00A0E3"/>
<stop offset="0.4902" stop-color="#0A79C1"/>
<stop offset="1" stop-color="#14519E"/>
</linearGradient>
</defs>
</svg>
