<svg width="30" height="30" viewBox="0 0 30 30" fill="none" xmlns="http://www.w3.org/2000/svg">
<path d="M21 2.5H17.75C13.75 2.5 11.25 5 11.25 9V14.0625H19.0625C19.575 14.0625 20 14.4875 20 15C20 15.5125 19.575 15.9375 19.0625 15.9375H11.25V21C11.25 25 13.75 27.5 17.75 27.5H20.9875C24.9875 27.5 27.4875 25 27.4875 21V9C27.5 5 25 2.5 21 2.5Z" fill="#14519E"/>
<path d="M5.70005 14.0625L8.28755 11.475C8.47505 11.2875 8.56255 11.05 8.56255 10.8125C8.56255 10.575 8.47505 10.325 8.28755 10.15C7.92505 9.78755 7.32505 9.78755 6.96255 10.15L2.77505 14.3375C2.41255 14.7 2.41255 15.3 2.77505 15.6625L6.96255 19.85C7.32505 20.2125 7.92505 20.2125 8.28755 19.85C8.65005 19.4875 8.65005 18.8875 8.28755 18.525L5.70005 15.9375H11.25V14.0625H5.70005Z" fill="#14519E"/>
</svg>
