<svg width="30" height="30" viewBox="0 0 30 30" fill="none" xmlns="http://www.w3.org/2000/svg">
<g clip-path="url(#clip0_998_81669)">
<path d="M9.30664 16.0876C10.148 16.0876 10.8301 15.4056 10.8301 14.5642C10.8301 13.7228 10.148 13.0408 9.30664 13.0408C8.46527 13.0408 7.7832 13.7228 7.7832 14.5642C7.7832 15.4056 8.46527 16.0876 9.30664 16.0876Z" fill="url(#paint0_linear_998_81669)"/>
<path d="M15 16.0876C15.8414 16.0876 16.5234 15.4056 16.5234 14.5642C16.5234 13.7228 15.8414 13.0408 15 13.0408C14.1586 13.0408 13.4766 13.7228 13.4766 14.5642C13.4766 15.4056 14.1586 16.0876 15 16.0876Z" fill="url(#paint1_linear_998_81669)"/>
<path d="M20.6934 16.0876C21.5347 16.0876 22.2168 15.4056 22.2168 14.5642C22.2168 13.7228 21.5347 13.0408 20.6934 13.0408C19.852 13.0408 19.1699 13.7228 19.1699 14.5642C19.1699 15.4056 19.852 16.0876 20.6934 16.0876Z" fill="url(#paint2_linear_998_81669)"/>
<path d="M30.042 2.23685C30.0434 1.64633 29.8101 1.07945 29.3935 0.660924C29.1872 0.45369 28.9421 0.289114 28.6723 0.176593C28.4024 0.0640723 28.113 0.00581006 27.8206 0.00513293C27.2301 0.00376541 26.6632 0.237037 26.2447 0.653632C25.8261 1.07023 25.5902 1.63602 25.5889 2.22654C25.5898 2.7556 25.779 3.26706 26.1225 3.66942C26.466 4.07177 26.9415 4.33877 27.4639 4.42263V10.8426C27.4642 10.9381 27.4842 11.0325 27.5227 11.1199C28.0846 12.4158 28.3742 13.8134 28.3735 15.2259C28.3743 17.0597 27.8961 18.8618 26.9862 20.4539C26.9526 20.5137 26.9372 20.582 26.9419 20.6504C26.9466 20.7188 26.9712 20.7844 27.0127 20.839C27.0542 20.8936 27.1108 20.9349 27.1755 20.9577C27.2401 20.9806 27.3101 20.984 27.3767 20.9676C28.0312 20.8159 28.6223 20.4642 29.0679 19.9615C30.0657 18.8475 30.0195 17.4747 29.9555 15.5749C29.8915 13.6751 29.8456 12.299 28.7635 11.2207C28.5812 11.0433 28.3814 10.885 28.167 10.7482V4.42263C28.6876 4.33902 29.1617 4.07351 29.505 3.6733C29.8483 3.27309 30.0386 2.76412 30.042 2.23685Z" fill="url(#paint3_linear_998_81669)"/>
<path d="M1.83297 4.42269V10.7482C1.61858 10.885 1.41871 11.0433 1.23648 11.2207C0.154375 12.2991 0.108203 13.6732 0.0444531 15.575C-0.0192969 17.4767 -0.0657032 18.8475 0.932031 19.9615C1.3777 20.4643 1.96877 20.816 2.62328 20.9677C2.68988 20.9841 2.75983 20.9807 2.8245 20.9578C2.88917 20.9349 2.94574 20.8937 2.98725 20.8391C3.02875 20.7845 3.05338 20.7189 3.05809 20.6505C3.0628 20.582 3.04738 20.5137 3.01375 20.4539C2.10387 18.8619 1.62566 17.0597 1.62648 15.226C1.62579 13.8135 1.91538 12.4159 2.47727 11.12C2.51573 11.0326 2.53575 10.9382 2.53609 10.8427V4.42269C3.0952 4.33377 3.59939 4.03508 3.94599 3.58745C4.29258 3.13981 4.45553 2.5769 4.40164 2.01334C4.34775 1.44978 4.08107 0.927948 3.65592 0.554115C3.23076 0.180282 2.67911 -0.0174413 2.11328 0.0012089C1.53541 0.0252993 0.989001 0.270998 0.58749 0.687304C0.18598 1.10361 -0.0397956 1.65854 -0.0429688 2.23691C-0.0395115 2.76432 0.150895 3.2734 0.494387 3.67363C0.837879 4.07385 1.31219 4.33928 1.83297 4.42269Z" fill="url(#paint4_linear_998_81669)"/>
<path d="M9.03773 29.1683C9.22104 29.4644 9.49603 29.6924 9.82086 29.8178C10.1457 29.9432 10.5026 29.9591 10.8373 29.863C13.2826 29.2139 15.5012 27.9019 17.2481 26.0718C23.295 25.1437 27.6703 20.6001 27.6703 15.2261C27.6703 9.15201 22.0052 4.21045 15.042 4.21045C8.07867 4.21045 2.41406 9.15201 2.41406 15.2261C2.41406 19.7947 5.64844 23.878 10.5077 25.5076C10.1286 26.0717 9.70983 26.6081 9.25453 27.1126C8.98782 27.3783 8.82068 27.7276 8.78119 28.102C8.74171 28.4764 8.8323 28.8529 9.03773 29.1683ZM15.042 23.781C14.8334 23.781 14.6294 23.7191 14.456 23.6032C14.2826 23.4874 14.1474 23.3226 14.0675 23.1299C13.9877 22.9372 13.9668 22.7251 14.0075 22.5205C14.0482 22.316 14.1487 22.128 14.2962 21.9805C14.4437 21.833 14.6316 21.7326 14.8362 21.6919C15.0408 21.6512 15.2528 21.6721 15.4456 21.7519C15.6383 21.8317 15.803 21.9669 15.9189 22.1404C16.0348 22.3138 16.0966 22.5177 16.0966 22.7263C16.0966 23.006 15.9855 23.2743 15.7877 23.4721C15.5899 23.6699 15.3217 23.781 15.042 23.781ZM9.70336 21.2029C8.69231 21.1997 7.71835 20.8218 6.96986 20.1421C6.22137 19.4624 5.75154 18.5292 5.65125 17.5232C5.49032 16.1267 5.62452 14.712 6.04514 13.3707C6.46576 12.0293 7.16343 10.7913 8.09297 9.73678C8.96704 8.76153 10.0389 7.98372 11.2371 7.45515C12.4353 6.92659 13.7324 6.6594 15.042 6.67139C16.3515 6.6594 17.6486 6.92659 18.8468 7.45515C20.045 7.98372 21.1169 8.76153 21.9909 9.73678C22.9203 10.7912 23.6178 12.029 24.0384 13.3701C24.459 14.7112 24.5934 16.1257 24.4327 17.522C24.3324 18.5281 23.8626 19.4613 23.1141 20.141C22.3656 20.8207 21.3916 21.1986 20.3805 21.2017C19.4955 21.2219 18.6244 20.9782 17.8784 20.5016C17.0312 19.9658 16.0445 19.6923 15.0424 19.7158C14.0403 19.6923 13.0536 19.9658 12.2065 20.5016C11.4602 20.9788 10.5887 21.2228 9.70313 21.2026L9.70336 21.2029Z" fill="url(#paint5_linear_998_81669)"/>
</g>
<defs>
<linearGradient id="paint0_linear_998_81669" x1="11.1744" y1="13.7313" x2="8.85839" y2="15.9701" gradientUnits="userSpaceOnUse">
<stop stop-color="#00A0E3"/>
<stop offset="0.4902" stop-color="#0A79C1"/>
<stop offset="1" stop-color="#14519E"/>
</linearGradient>
<linearGradient id="paint1_linear_998_81669" x1="16.8677" y1="13.7313" x2="14.5518" y2="15.9701" gradientUnits="userSpaceOnUse">
<stop stop-color="#00A0E3"/>
<stop offset="0.4902" stop-color="#0A79C1"/>
<stop offset="1" stop-color="#14519E"/>
</linearGradient>
<linearGradient id="paint2_linear_998_81669" x1="22.5611" y1="13.7313" x2="20.2451" y2="15.9701" gradientUnits="userSpaceOnUse">
<stop stop-color="#00A0E3"/>
<stop offset="0.4902" stop-color="#0A79C1"/>
<stop offset="1" stop-color="#14519E"/>
</linearGradient>
<linearGradient id="paint3_linear_998_81669" x1="30.5452" y1="4.75796" x2="24.2619" y2="6.04762" gradientUnits="userSpaceOnUse">
<stop stop-color="#00A0E3"/>
<stop offset="0.4902" stop-color="#0A79C1"/>
<stop offset="1" stop-color="#14519E"/>
</linearGradient>
<linearGradient id="paint4_linear_998_81669" x1="4.91515" y1="4.754" x2="-1.37031" y2="6.04425" gradientUnits="userSpaceOnUse">
<stop stop-color="#00A0E3"/>
<stop offset="0.4902" stop-color="#0A79C1"/>
<stop offset="1" stop-color="#14519E"/>
</linearGradient>
<linearGradient id="paint5_linear_998_81669" x1="30.5244" y1="10.0379" x2="10.9932" y2="28.5816" gradientUnits="userSpaceOnUse">
<stop stop-color="#00A0E3"/>
<stop offset="0.4902" stop-color="#0A79C1"/>
<stop offset="1" stop-color="#14519E"/>
</linearGradient>
<clipPath id="clip0_998_81669">
<rect width="30" height="30" fill="white"/>
</clipPath>
</defs>
</svg>
