<svg width="30" height="30" viewBox="0 0 30 30" fill="none" xmlns="http://www.w3.org/2000/svg">
<path d="M8.75 6.25C8.75 4.175 10.425 2.5 12.5 2.5H17.5C19.575 2.5 21.25 4.175 21.25 6.25C21.25 6.9375 20.6875 7.5 20 7.5H10C9.3125 7.5 8.75 6.9375 8.75 6.25Z" fill="url(#paint0_linear_998_85337)"/>
<path d="M22.1875 18.75C22.1875 19.2625 21.7625 19.6875 21.25 19.6875H20V23.75C20 25.825 18.325 27.5 16.25 27.5H13.75C11.675 27.5 10 25.825 10 23.75V19.6875H8.75C8.2375 19.6875 7.8125 19.2625 7.8125 18.75C7.8125 18.2375 8.2375 17.8125 8.75 17.8125H21.25C21.7625 17.8125 22.1875 18.2375 22.1875 18.75Z" fill="url(#paint1_linear_998_85337)"/>
<path d="M22.5 8.75H7.5C5 8.75 3.75 10 3.75 12.5V18.75C3.75 21.25 5 22.5 7.5 22.5H7.96875C8.40022 22.5 8.75 22.1502 8.75 21.7188C8.75 21.2873 8.38913 20.9505 7.98551 20.798C7.15773 20.4852 6.5625 19.6817 6.5625 18.75C6.5625 17.55 7.55 16.5625 8.75 16.5625H21.25C22.45 16.5625 23.4375 17.55 23.4375 18.75C23.4375 19.6817 22.8423 20.4852 22.0145 20.798C21.6109 20.9505 21.25 21.2873 21.25 21.7188C21.25 22.1502 21.5998 22.5 22.0312 22.5H22.5C25 22.5 26.25 21.25 26.25 18.75V12.5C26.25 10 25 8.75 22.5 8.75ZM12.5 14.6875H8.75C8.2375 14.6875 7.8125 14.2625 7.8125 13.75C7.8125 13.2375 8.2375 12.8125 8.75 12.8125H12.5C13.0125 12.8125 13.4375 13.2375 13.4375 13.75C13.4375 14.2625 13.0125 14.6875 12.5 14.6875Z" fill="url(#paint2_linear_998_85337)"/>
<defs>
<linearGradient id="paint0_linear_998_85337" x1="22.6626" y1="3.6331" x2="19.9755" y2="10.1268" gradientUnits="userSpaceOnUse">
<stop stop-color="#00A0E3"/>
<stop offset="0.4902" stop-color="#0A79C1"/>
<stop offset="1" stop-color="#14519E"/>
</linearGradient>
<linearGradient id="paint1_linear_998_85337" x1="23.8119" y1="20.0079" x2="16.8988" y2="29.9242" gradientUnits="userSpaceOnUse">
<stop stop-color="#00A0E3"/>
<stop offset="0.4902" stop-color="#0A79C1"/>
<stop offset="1" stop-color="#14519E"/>
</linearGradient>
<linearGradient id="paint2_linear_998_85337" x1="28.7926" y1="11.866" x2="19.3458" y2="26.8093" gradientUnits="userSpaceOnUse">
<stop stop-color="#00A0E3"/>
<stop offset="0.4902" stop-color="#0A79C1"/>
<stop offset="1" stop-color="#14519E"/>
</linearGradient>
</defs>
</svg>
