<svg width="24" height="26" viewBox="0 0 24 26" fill="none" xmlns="http://www.w3.org/2000/svg">
<path d="M8.27625 25.8126C7.86185 25.8142 7.46376 25.6512 7.16957 25.3593C6.87537 25.0675 6.70916 24.6707 6.7075 24.2563C6.70584 23.8419 6.86887 23.4438 7.16073 23.1496C7.45258 22.8554 7.84935 22.6892 8.26375 22.6876H8.27625C8.69065 22.6876 9.08808 22.8522 9.3811 23.1452C9.67413 23.4382 9.83875 23.8357 9.83875 24.2501C9.83875 24.6645 9.67413 25.0619 9.3811 25.3549C9.08808 25.648 8.69065 25.8126 8.27625 25.8126ZM19.8387 24.2501C19.8387 23.8357 19.6741 23.4382 19.3811 23.1452C19.0881 22.8522 18.6907 22.6876 18.2762 22.6876H18.2638C17.9553 22.69 17.6544 22.7838 17.3991 22.957C17.1438 23.1301 16.9455 23.375 16.8291 23.6607C16.7128 23.9465 16.6836 24.2602 16.7453 24.5625C16.807 24.8648 16.9568 25.142 17.1758 25.3593C17.3948 25.5765 17.6732 25.7241 17.976 25.7834C18.2787 25.8427 18.5923 25.811 18.877 25.6924C19.1618 25.5738 19.4051 25.3735 19.5763 25.1168C19.7474 24.8602 19.8387 24.5586 19.8387 24.2501ZM23.2 8.45007L21.9375 16.1751C21.9214 16.6278 21.81 17.0721 21.6106 17.4789C21.4112 17.8857 21.1283 18.2459 20.7804 18.536C20.4325 18.8262 20.0273 19.0397 19.5913 19.1627C19.1553 19.2858 18.6983 19.3155 18.25 19.2501H7.9125C7.30972 19.2516 6.72683 19.0346 6.27177 18.6393C5.81672 18.2439 5.52033 17.6971 5.4375 17.1001L3.56125 4.04007C3.51221 3.66464 3.32778 3.32003 3.0426 3.07099C2.75742 2.82194 2.39111 2.6856 2.0125 2.68757H1.6875C1.43886 2.68757 1.2004 2.5888 1.02459 2.41298C0.848772 2.23717 0.75 1.99871 0.75 1.75007C0.75 1.50143 0.848772 1.26297 1.02459 1.08716C1.2004 0.911342 1.43886 0.81257 1.6875 0.81257H2.0125C2.84195 0.807248 3.64493 1.10432 4.27119 1.64822C4.89744 2.19211 5.30408 2.94555 5.415 3.76757L5.67625 5.50007H20.75C21.1156 5.50141 21.4765 5.58294 21.8073 5.73892C22.138 5.89489 22.4304 6.12151 22.6641 6.4028C22.8977 6.68409 23.0667 7.0132 23.1593 7.36693C23.2519 7.72066 23.2658 8.09039 23.2 8.45007ZM16.3837 10.0451C16.2967 9.95795 16.1933 9.88884 16.0795 9.84169C15.9657 9.79454 15.8438 9.77027 15.7206 9.77027C15.5975 9.77027 15.4755 9.79454 15.3617 9.84169C15.2479 9.88884 15.1446 9.95795 15.0575 10.0451L12.3875 12.7151L11.3875 11.7151C11.2108 11.5442 10.974 11.4496 10.7282 11.4516C10.4824 11.4536 10.2472 11.5521 10.0733 11.7259C9.89938 11.8996 9.80068 12.1347 9.79842 12.3805C9.79617 12.6263 9.89056 12.8632 10.0613 13.0401L11.7275 14.7076C11.9037 14.8829 12.1421 14.9813 12.3906 14.9813C12.6392 14.9813 12.8776 14.8829 13.0538 14.7076L16.3837 11.3751C16.4714 11.2879 16.541 11.1843 16.5885 11.0702C16.636 10.9561 16.6604 10.8337 16.6604 10.7101C16.6604 10.5865 16.636 10.4641 16.5885 10.3499C16.541 10.2358 16.4714 10.1322 16.3837 10.0451Z" fill="#14519E"/>
</svg>
