<svg width="35" height="35" viewBox="0 0 35 35" fill="none" xmlns="http://www.w3.org/2000/svg">
<path d="M24.7916 5.10425H10.2083C5.83329 5.10425 2.91663 7.29175 2.91663 12.3959V22.6042C2.91663 27.7084 5.83329 29.8959 10.2083 29.8959H24.7916C29.1666 29.8959 32.0833 27.7084 32.0833 22.6042V12.3959C32.0833 7.29175 29.1666 5.10425 24.7916 5.10425ZM25.477 13.9855L20.9125 17.6313C19.95 18.4042 18.725 18.7834 17.5 18.7834C16.275 18.7834 15.0354 18.4042 14.0875 17.6313L9.52288 13.9855C9.05621 13.6063 8.98329 12.9063 9.34788 12.4397C9.72704 11.973 10.4125 11.8855 10.8791 12.2647L15.4437 15.9105C16.552 16.8001 18.4333 16.8001 19.5416 15.9105L24.1062 12.2647C24.5729 11.8855 25.2729 11.9584 25.6375 12.4397C26.0166 12.9063 25.9437 13.6063 25.477 13.9855Z" fill="url(#paint0_linear_998_85336)"/>
<defs>
<linearGradient id="paint0_linear_998_85336" x1="35.3793" y1="10.7225" x2="16.6786" y2="31.99" gradientUnits="userSpaceOnUse">
<stop stop-color="#00A0E3"/>
<stop offset="0.4902" stop-color="#0A79C1"/>
<stop offset="1" stop-color="#14519E"/>
</linearGradient>
</defs>
</svg>
